<svg xmlns="http://www.w3.org/2000/svg" width="136.036" height="29" viewBox="0 0 136.036 29">
  <g id="Group_2" data-name="Group 2" transform="translate(-1559.961 -64)">
    <g id="Group_1" data-name="Group 1" transform="translate(1559.961 67.967)">
      <path id="Path_1" data-name="Path 1" d="M969.722,75.52h-.31c-.5.162-.731-.03-.771-.641,0-.271-.007-.541,0-.811.01-.568.253-.8.823-.805,1.237,0,2.474-.017,3.71.01a.723.723,0,0,0,.73-.392c.531-.927,1.148-1.808,1.762-2.67,1-1.412,1.945-2.869,2.964-4.271a.658.658,0,0,1,.8-.113c.264.17.519.355.78.53a.611.611,0,0,1,.189.987q-.583.857-1.171,1.711a.3.3,0,0,0-.065.173,1.6,1.6,0,0,1-.309.573q-1.128,1.64-2.244,3.292c.1.112.221.061.327.062.812.006,1.625-.007,2.437.01.189,0,.466-.027.349.328q-.007,4.37-.016,8.741c0,.182.05.243.238.242q1.663-.012,3.326,0c.191,0,.236-.065.235-.244q-.013-4.448-.016-8.9c.061-.235.26-.168.41-.17.8-.01,1.6,0,2.4-.006.1,0,.228.047.285-.058s-.054-.189-.109-.269q-1.882-2.718-3.763-5.436a.731.731,0,0,1,.1-1.036,4.33,4.33,0,0,1,.894-.608.759.759,0,0,1,1.069.3c.588.863,1.2,1.706,1.778,2.579.041.062.077.127.122.187.539.762,1.055,1.54,1.6,2.3.085.117.11.258.181.378.29.6.759,1.088,1.094,1.661.086.148.247.119.384.108,1.256-.1,2.515-.074,3.773-.075.705,0,.867.164.867.88,0,.245,0,.49,0,.735a.584.584,0,0,1-.64.63c-.588,0-.571.009-.762.637-.269.886-.562,1.765-.854,2.644a2.923,2.923,0,0,0-.146.58,4.763,4.763,0,0,1-.341,1.295c-.544,1.74-1.074,3.486-1.652,5.216a2.153,2.153,0,0,1-1.762,1.533c-4.3.078-12.093.21-13.031.133-.135-.011-.268-.035-.268-.035a2.489,2.489,0,0,1-1.591-.837,3.3,3.3,0,0,1-.541-1.175c-.437-1.171-.784-2.373-1.17-3.561-.4-1.224-.783-2.455-1.18-3.681-.234-.723-.411-1.464-.684-2.175A1.131,1.131,0,0,0,969.722,75.52Z" transform="translate(-968.637 -65.643)" fill="#ef0330"/>
    </g>
    <text id="esarmad" transform="translate(1590.998 88)" font-size="24" font-family="Verdana"><tspan x="0" y="0">esarmad</tspan></text>
  </g>
</svg>
